<?xml version="1.0" encoding="UTF-8" standalone="no"?>
<!-- Created with Inkscape (http://www.inkscape.org/) -->

<svg
   xmlns:dc="http://purl.org/dc/elements/1.1/"
   xmlns:cc="http://creativecommons.org/ns#"
   xmlns:rdf="http://www.w3.org/1999/02/22-rdf-syntax-ns#"
   xmlns:svg="http://www.w3.org/2000/svg"
   xmlns="http://www.w3.org/2000/svg"
   xmlns:xlink="http://www.w3.org/1999/xlink"
   xmlns:sodipodi="http://sodipodi.sourceforge.net/DTD/sodipodi-0.dtd"
   xmlns:inkscape="http://www.inkscape.org/namespaces/inkscape"
   id="svg8"
   version="1.1"
   viewBox="0 0 264.58333 264.58334"
   height="1000"
   width="1000"
   inkscape:version="0.92.1 r15371"
   sodipodi:docname="icon_export.svg"
   inkscape:export-filename="D:\Samuel Daten\Programmieren\mp3-monitoring\icon_export.png"
   inkscape:export-xdpi="24.576"
   inkscape:export-ydpi="24.576">
  <defs
     id="defs2">
    <linearGradient
       inkscape:collect="always"
       id="linearGradient5030">
      <stop
         style="stop-color:#141414;stop-opacity:1"
         offset="0"
         id="stop5026" />
      <stop
         style="stop-color:#c8c8c8;stop-opacity:1"
         offset="1"
         id="stop5028" />
    </linearGradient>
    <linearGradient
       id="linearGradient5004"
       inkscape:collect="always">
      <stop
         id="stop5000"
         offset="0"
         style="stop-color:#222222;stop-opacity:1" />
      <stop
         id="stop5002"
         offset="1"
         style="stop-color:#b0b0b0;stop-opacity:1" />
    </linearGradient>
    <linearGradient
       inkscape:collect="always"
       id="linearGradient4994">
      <stop
         style="stop-color:#dddddd;stop-opacity:1"
         offset="0"
         id="stop4990" />
      <stop
         style="stop-color:#222222;stop-opacity:1"
         offset="1"
         id="stop4992" />
    </linearGradient>
    <linearGradient
       inkscape:collect="always"
       id="linearGradient4964">
      <stop
         style="stop-color:#888888;stop-opacity:1"
         offset="0"
         id="stop4960" />
      <stop
         style="stop-color:#222222;stop-opacity:1"
         offset="1"
         id="stop4962" />
    </linearGradient>
    <linearGradient
       inkscape:collect="always"
       xlink:href="#linearGradient4964"
       id="linearGradient4966"
       x1="110.14753"
       y1="64.935326"
       x2="296.63013"
       y2="251.41846"
       gradientUnits="userSpaceOnUse" />
    <filter
       inkscape:collect="always"
       style="color-interpolation-filters:sRGB"
       id="filter4986"
       x="-0.020049264"
       width="1.0400985"
       y="-0.029889835"
       height="1.0597797">
      <feGaussianBlur
         inkscape:collect="always"
         stdDeviation="0.35679285"
         id="feGaussianBlur4988" />
    </filter>
    <linearGradient
       inkscape:collect="always"
       xlink:href="#linearGradient4994"
       id="linearGradient4996"
       x1="18.54565"
       y1="100.38689"
       x2="154.25913"
       y2="100.38689"
       gradientUnits="userSpaceOnUse" />
    <linearGradient
       inkscape:collect="always"
       xlink:href="#linearGradient5004"
       id="linearGradient4998"
       gradientUnits="userSpaceOnUse"
       x1="29.520794"
       y1="160.70209"
       x2="147.55286"
       y2="37.602619" />
    <linearGradient
       inkscape:collect="always"
       xlink:href="#linearGradient5030"
       id="linearGradient5032"
       x1="5.291667"
       y1="259.29169"
       x2="177.86777"
       y2="224.2606"
       gradientUnits="userSpaceOnUse" />
    <linearGradient
       inkscape:collect="always"
       xlink:href="#linearGradient4964"
       id="linearGradient4535"
       gradientUnits="userSpaceOnUse"
       x1="110.14753"
       y1="64.935326"
       x2="296.63013"
       y2="251.41846"
       gradientTransform="translate(-41.270301,-5.073673)" />
    <linearGradient
       inkscape:collect="always"
       xlink:href="#linearGradient4964"
       id="linearGradient4535-0"
       gradientUnits="userSpaceOnUse"
       x1="110.14753"
       y1="64.935326"
       x2="296.63013"
       y2="251.41846"
       gradientTransform="translate(-41.270301,-5.073586)" />
    <linearGradient
       inkscape:collect="always"
       xlink:href="#linearGradient5004"
       id="linearGradient4650"
       gradientUnits="userSpaceOnUse"
       x1="29.520794"
       y1="160.70209"
       x2="147.55286"
       y2="37.602619"
       gradientTransform="matrix(4.9533258,0,0,4.9533258,-84.159417,-146.11879)" />
  </defs>
  <sodipodi:namedview
     inkscape:window-maximized="1"
     inkscape:window-y="-8"
     inkscape:window-x="1672"
     inkscape:window-height="987"
     inkscape:window-width="1680"
     units="px"
     showgrid="false"
     inkscape:current-layer="svg8"
     inkscape:document-units="px"
     inkscape:cy="515.99056"
     inkscape:cx="374.71895"
     inkscape:zoom="0.7"
     inkscape:pageshadow="2"
     inkscape:pageopacity="0.0"
     borderopacity="1.0"
     bordercolor="#666666"
     pagecolor="#ffffff"
     id="base"
     inkscape:snap-bbox="true"
     inkscape:bbox-paths="true"
     inkscape:bbox-nodes="true"
     inkscape:snap-bbox-edge-midpoints="true"
     showguides="false"
     inkscape:object-paths="true"
     inkscape:snap-intersection-paths="true"
     inkscape:snap-smooth-nodes="true"
     inkscape:snap-global="true" />
  <metadata
     id="metadata5">
    <rdf:RDF>
      <cc:Work
         rdf:about="">
        <dc:format>image/svg+xml</dc:format>
        <dc:type
           rdf:resource="http://purl.org/dc/dcmitype/StillImage" />
        <dc:title />
        <dc:creator>
          <cc:Agent>
            <dc:title>Iceflower S, iceflower@gmx.de</dc:title>
          </cc:Agent>
        </dc:creator>
        <dc:rights>
          <cc:Agent>
            <dc:title>Iceflower S, iceflower@gmx.de</dc:title>
          </cc:Agent>
        </dc:rights>
        <dc:publisher>
          <cc:Agent>
            <dc:title>Iceflower S, iceflower@gmx.de</dc:title>
          </cc:Agent>
        </dc:publisher>
      </cc:Work>
    </rdf:RDF>
  </metadata>
  <path
     style="color:#000000;font-style:normal;font-variant:normal;font-weight:normal;font-stretch:normal;font-size:medium;line-height:normal;font-family:sans-serif;font-variant-ligatures:normal;font-variant-position:normal;font-variant-caps:normal;font-variant-numeric:normal;font-variant-alternates:normal;font-feature-settings:normal;text-indent:0;text-align:start;text-decoration:none;text-decoration-line:none;text-decoration-style:solid;text-decoration-color:#000000;letter-spacing:normal;word-spacing:normal;text-transform:none;writing-mode:lr-tb;direction:ltr;text-orientation:mixed;dominant-baseline:auto;baseline-shift:baseline;text-anchor:start;white-space:normal;shape-padding:0;clip-rule:nonzero;display:inline;overflow:visible;visibility:visible;opacity:1;isolation:auto;mix-blend-mode:normal;color-interpolation:sRGB;color-interpolation-filters:linearRGB;solid-color:#000000;solid-opacity:1;vector-effect:none;fill:url(#linearGradient4535);fill-opacity:1;fill-rule:nonzero;stroke:none;stroke-width:13.30374146;stroke-linecap:round;stroke-linejoin:round;stroke-miterlimit:4;stroke-dasharray:none;stroke-dashoffset:188.97637939;stroke-opacity:1;paint-order:normal;color-rendering:auto;image-rendering:auto;shape-rendering:auto;text-rendering:auto;enable-background:accumulate"
     d="m 87.225029,78.210017 c -24.46373,24.463743 -24.46374,64.328093 10e-6,88.791843 22.340791,22.34079 57.523831,24.27603 82.093931,5.8129 l 70.99247,70.99247 c 3.38342,3.38342 8.83143,3.38341 12.21484,1e-5 l 0.29597,-0.29598 c 3.38343,-3.38342 3.38344,-8.83143 2e-5,-12.21485 l -70.99248,-70.99248 c 18.46333,-24.57028 16.529,-59.75424 -5.81181,-82.095011 -24.46375,-24.46375 -64.3292,-24.462655 -88.792951,0.0011 z m 9.40633,9.406322 c 19.379741,-19.37975 50.599111,-19.379386 69.978841,3.52e-4 19.37974,19.379739 19.37975,50.598739 -1e-5,69.978489 -19.37973,19.37972 -50.59909,19.38009 -69.978831,3.6e-4 -19.37974,-19.37974 -19.37973,-50.59947 0,-69.979201 z"
     id="path4695"
     inkscape:connector-curvature="0" />
  <g
     inkscape:label="Ebene 1"
     inkscape:groupmode="layer"
     id="layer1"
     transform="translate(0,-32.416615)" />
  <g
     id="g4804"
     transform="matrix(1.1402944,0,0,1.1402944,-4.725689,-23.185365)"
     style="fill-opacity:1;fill:url(#linearGradient4996)">
    <g
       id="g4808"
       transform="matrix(1.1493238,0,0,1.1493238,-15.3833,-13.571263)"
       style="fill-opacity:1;fill:url(#linearGradient4996)">
      <path
         style="opacity:1;fill:url(#linearGradient4650);fill-opacity:1;stroke:none;stroke-width:92.74880981;stroke-linecap:round;stroke-linejoin:round;stroke-miterlimit:4;stroke-dasharray:none;stroke-dashoffset:188.97637939;stroke-opacity:1;paint-order:normal"
         d="M 646.71875 40.138672 L 216.35742 124.50781 L 216.35742 495.14648 C 199.72929 484.22529 179.58972 478.3132 158.89258 478.27734 C 105.41639 478.27738 62.065618 516.69452 62.066406 564.08398 C 62.065618 611.47345 105.41639 649.89059 158.89258 649.89062 C 212.06445 649.89059 255.2183 611.90794 255.70703 564.89062 C 228.71085 500.14617 228.71577 426.60486 255.7207 361.86328 L 255.7207 269.66602 L 340.87695 252.9707 C 387.12736 218.54475 442.36053 201.24897 497.4668 201.24805 C 519.40406 201.24767 541.35917 204.00463 562.76367 209.47266 L 607.60156 200.68164 L 607.60156 225.36328 C 621.16085 231.61387 634.28845 239.07943 646.81641 247.75391 L 646.71875 40.138672 z M 607.60156 98.630859 L 607.60156 148.2793 L 255.7207 217.26562 L 255.7207 167.61523 L 607.60156 98.630859 z M 607.60156 312.19336 L 607.60156 495.14844 C 590.97263 484.22585 570.83154 478.31303 550.13281 478.27734 C 496.65662 478.27738 453.30585 516.69452 453.30664 564.08398 C 453.36274 604.37688 485.04808 639.20757 529.46875 647.80664 C 566.13287 641.44005 601.2882 624.05357 629.70703 595.63477 C 635.50484 589.83696 640.84074 583.7575 645.7207 577.44336 C 646.52659 573.02571 646.94127 568.55895 646.96094 564.08398 L 646.86328 350.85156 C 641.67505 343.99688 635.96437 337.40773 629.70703 331.15039 C 622.72012 324.16351 615.32513 317.84731 607.60156 312.19336 z "
         transform="matrix(0.20188455,0,0,0.20188455,16.990487,29.49913)"
         id="path4499-59" />
    </g>
  </g>
  <path
     sodipodi:nodetypes="ccc"
     inkscape:connector-curvature="0"
     id="path4976"
     d="M 85.763609,95.600737 C 87.864219,75.350206 114.36002,61.809716 128.47355,68.821816 109.67061,69.450466 96.611129,79.443462 85.763609,95.600737 Z"
     style="fill:#bbbbbb;fill-opacity:1;fill-rule:evenodd;stroke:none;stroke-width:0.26458332px;stroke-linecap:butt;stroke-linejoin:miter;stroke-opacity:1;filter:url(#filter4986)" />
  <path
     style="fill:none;fill-rule:evenodd;stroke:url(#linearGradient5032);stroke-width:9.67522907;stroke-linecap:round;stroke-linejoin:round;stroke-miterlimit:4;stroke-dasharray:none;stroke-opacity:1"
     d="m 172.96126,219.94705 h -16.2763 l -16.27631,17.25393 -16.27631,-34.50785 -16.27631,51.76177 -16.276314,-34.50785 -16.276305,17.25393 -16.2763,-43.13482 -16.27631,51.76177 -16.27631,-25.88088 h -16.27631"
     id="path4950"
     inkscape:connector-curvature="0"
     sodipodi:nodetypes="ccccccccccc" />
</svg>
